<svg version="1.2" xmlns="http://www.w3.org/2000/svg" viewBox="0 0 2100 516" width="2100" height="516"><style>.a{fill:#fff}.b{fill:#ff0060}.c{fill:#ffffff}</style><path fill-rule="evenodd" class="a" d="m683.9 11h563.6c52.7 0 95.5 45 95.5 100.6v297.8c0 55.6-42.8 100.6-95.5 100.6l-661.5-1.5 2.4-396.9c0-55.6 42.8-100.6 95.5-100.6z"/><path class="b" d="m692 304.8v-176.7h41.9v176.7zm83.7 0v-176.7h41.8v176.7zm83.7 0v-176.7h41.9v176.7zm-125.6 44.2v-44.2h41.9v44.2zm83.7 0v-44.2h41.8v44.2zm167.3-132.5v-44.2h41.9v44.2zm-41.9 132.5v-132.5h41.9v44.2h41.8v-44.2h41.9v88.3h-83.7v44.2zm41.8 44.2v-44.2h41.9v44.2zm168-176.7v88.3h41.9v44.2h-83.8v-220.9h41.9v44.2h41.9v44.2zm41.8 88.3v-88.3h41.9v88.3z"/><path  d="m59 200.2v98.9h-33v-98.9zm33 98.9v-98.9h32.9v98.9zm-32.9 65.9v-65.9h32.9v65.9zm132-98.9v-32.9h33v32.9zm-33 65.9v-65.9h33v65.9zm66 0v-65.9h32.9v65.9zm-32.9 33v-33h32.9v33zm132-131.8v98.8h-32.9v-98.8zm0 131.8v-33h32.9v-98.8h33v131.8zm99 0v-131.8h66v32.9h-33v98.9z"/><path class="c" d="m43 183.2v98.9h-33v-98.9zm33 98.9v-98.9h32.9v98.9zm-32.9 65.9v-65.9h32.9v65.9zm132-98.9v-32.9h33v32.9zm-33 65.9v-65.9h33v65.9zm66 0v-65.9h32.9v65.9zm-32.9 33v-33h32.9v33zm132-131.8v98.8h-32.9v-98.8zm0 131.8v-33h32.9v-98.8h33v131.8zm99 0v-131.8h66v32.9h-33v98.9z"/><path  d="m1471 364v-33h66.1v-33.1h-66.1v-99.1h99.2v33h-66.1v33.1h66.1v99.1zm165 0v-33h33.1v-66.1h-33.1v-33.1h66.1v165.2h-33v-33zm0-99.1v66.1h-33.1v-66.1zm132-33.1v99.2h-33v-99.2zm0 132.2v-33h33v-99.2h33.1v132.2zm133-99.1v-33.1h66.1v132.2h-66.1v-33h33v-66.1zm-33 66.1v-66.1h33v66.1zm165.1 33v-33h33.1v-66.1h-33.1v-33.1h33.1v-33h33v165.2zm0-99.1v66.1h-33v-66.1z"/><path class="c" d="m1455 347v-33h66.1v-33.1h-66.1v-99.1h99.2v33h-66.1v33.1h66.1v99.1zm165 0v-33h33.1v-66.1h-33.1v-33.1h66.1v165.2h-33v-33zm0-99.1v66.1h-33.1v-66.1zm132-33.1v99.2h-33v-99.2zm0 132.2v-33h33v-99.2h33.1v132.2zm133-99.1v-33.1h66.1v132.2h-66.1v-33h33v-66.1zm-33 66.1v-66.1h33v66.1zm165.1 33v-33h33.1v-66.1h-33.1v-33.1h33.1v-33h33v165.2zm0-99.1v66.1h-33v-66.1z"/></svg>