<svg xmlns="http://www.w3.org/2000/svg" xmlns:xlink="http://www.w3.org/1999/xlink" version="1.1" x="0px" y="0px" enable-background="new 0 0 90 90" xml:space="preserve" viewBox="0 0 90 90"><path d="M45.043,11.015c5.234,5.26,4.459,10.828,0.012,12.807C40.605,21.831,39.814,16.265,45.043,11.015z"/><path d="M37.84,25.759c-1.119,0.016-2.348,0.193-3.672,0.563c1.871,7.264,6.984,9.373,10.881,6.447  c3.896,2.926,9.016,0.816,10.881-6.447c-6.355-1.775-10.496,0.881-10.881,5.021C44.746,28.065,42.09,25.712,37.84,25.759z"/><path d="M37.84,36.769c-1.119,0.016-2.348,0.193-3.672,0.563c1.871,7.262,6.984,9.375,10.881,6.449  c3.896,2.926,9.016,0.813,10.881-6.449c-6.355-1.775-10.496,0.881-10.881,5.021C44.746,39.077,42.09,36.722,37.84,36.769z"/><path d="M37.84,48.212c-1.119,0.01-2.348,0.188-3.672,0.557c1.693,6.578,6.047,8.918,9.746,7.131v4.916h2.27v-4.916  c3.703,1.787,8.059-0.553,9.746-7.131c-6.09-1.697-10.131,0.672-10.803,4.512H44.98C44.455,50.274,41.867,48.165,37.84,48.212z"/><path fill-rule="evenodd" clip-rule="evenodd" d="M77.867,79.019c-8.703-9.922-20.512-15.5-32.818-15.5s-24.109,5.578-32.813,15.5  H77.867z"/><path d="M19.105,17.024c5.24,5.26,4.465,10.828,0.016,12.807C14.668,27.843,13.883,22.274,19.105,17.024z"/><path d="M11.908,31.769c-1.119,0.016-2.35,0.193-3.672,0.563c1.865,7.266,6.984,9.375,10.881,6.449  c3.891,2.926,9.01,0.816,10.879-6.449c-6.359-1.775-10.494,0.881-10.879,5.021C18.809,34.077,16.158,31.722,11.908,31.769z"/><path d="M11.908,42.78c-1.119,0.01-2.35,0.191-3.672,0.563c1.865,7.26,6.984,9.375,10.881,6.447  c3.891,2.928,9.01,0.813,10.879-6.447c-6.354-1.777-10.494,0.879-10.879,5.02C18.809,45.085,16.158,42.733,11.908,42.78z"/><path d="M11.908,54.222c-1.119,0.012-2.35,0.188-3.672,0.559c1.688,6.578,6.041,8.914,9.744,7.129v4.918h2.271v-4.918  c3.697,1.785,8.053-0.551,9.744-7.129c-6.088-1.699-10.135,0.672-10.801,4.51h-0.152C18.523,56.284,15.934,54.175,11.908,54.222z"/><path d="M70.977,17.024c5.238,5.26,4.457,10.828,0.016,12.807C66.539,27.843,65.752,22.274,70.977,17.024z"/><path d="M63.773,31.769c-1.115,0.016-2.344,0.193-3.672,0.563c1.869,7.266,6.988,9.375,10.885,6.449  c3.891,2.926,9.01,0.816,10.881-6.449c-6.359-1.775-10.496,0.881-10.881,5.021C70.68,34.077,68.027,31.722,63.773,31.769z"/><path d="M63.773,42.78c-1.115,0.01-2.344,0.191-3.672,0.563c1.869,7.26,6.988,9.375,10.885,6.447  c3.891,2.928,9.01,0.813,10.881-6.447c-6.359-1.777-10.496,0.879-10.881,5.02C70.68,45.085,68.027,42.733,63.773,42.78z"/><path d="M63.773,54.222c-1.115,0.012-2.344,0.188-3.672,0.559c1.691,6.578,6.047,8.914,9.744,7.129v4.918h2.275v-4.918  c3.699,1.785,8.053-0.551,9.746-7.129c-6.09-1.699-10.137,0.672-10.803,4.51h-0.15C70.393,56.284,67.805,54.175,63.773,54.222z"/></svg>