<svg xmlns="http://www.w3.org/2000/svg" xmlns:xlink="http://www.w3.org/1999/xlink" version="1.1" x="0px" y="0px" enable-background="new 0 0 90 90" xml:space="preserve" viewBox="0 0 90 90"><path d="M45.649,10.344c-2.006-0.041-3.994,0.094-5.947,0.396c-11.709,1.801-22.053,9.563-26.787,21  c-6.317,15.25-0.952,32.922,12.771,42.094c13.032,8.707,29.505,7.52,41.214-2.631c4.166-3.568-1.537-9.875-5.447-6.885  c-8.293,6.348-20.656,5.973-29.469,0.082c-9.287-6.203-12.87-18.012-8.594-28.328c4.271-10.316,15.156-16.129,26.109-13.953  C60.446,24.297,68.28,33.838,68.28,45.004c-0.021,3.35-4.668,2.912-4.668,0c0-8.816-6.322-16.582-15.02-18.311  c-2.178-0.438-4.359-0.471-6.463-0.141c-6.303,0.973-11.887,5.156-14.434,11.307c-3.396,8.197-0.5,17.74,6.876,22.666  c4.349,2.906,11.284,2.109,14.784-1.385c3.111-3.115,2.631-8.354-2.811-6.984c-1.908,0.428-3.943,0.094-5.678-1.063  c-2.938-1.963-4.047-5.631-2.691-8.896c1.348-3.26,4.732-5.078,8.197-4.391c3.469,0.688,5.9,3.668,5.9,7.197  c0,3.986,1.844,7.637,4.453,9.908c2.604,2.266,5.803,3.359,9.016,3.473c3.213,0.115,6.609-0.775,9.365-3.105  c2.563-2.166,4.238-5.645,4.463-9.42c0.031-0.275,0.047-0.557,0.047-0.855c0-16.504-11.725-30.781-27.916-34  C49.681,10.6,47.655,10.385,45.649,10.344z"/></svg>