<svg xmlns="http://www.w3.org/2000/svg" xmlns:xlink="http://www.w3.org/1999/xlink" version="1.1" x="0px" y="0px" enable-background="new 0 0 90 90" xml:space="preserve" viewBox="0 0 90 90"><path fill-rule="evenodd" clip-rule="evenodd" d="M15.29,37.198h59.416v29.75c0,2.619-2.073,4.697-4.688,4.697H19.977  c-2.614,0-4.687-2.079-4.687-4.697V37.198z M28.045,23.089c-0.026,0.005-0.053,0.005-0.078,0.005h-7.99  c-3.729,0-6.765,3.036-6.765,6.771v37.084c0,3.733,3.036,6.776,6.765,6.776h50.042c3.734,0,6.771-3.043,6.771-6.776V29.865  c0-3.735-3.036-6.771-6.771-6.771h-7.984c-0.599-0.041-1.109,0.438-1.109,1.036c0,0.604,0.511,1.079,1.109,1.038h7.984  c2.614,0,4.688,2.078,4.688,4.697v5.256H15.29v-5.256c0-2.62,2.072-4.697,4.687-4.697h7.99c0.572,0.025,1.057-0.422,1.078-1  C29.065,23.594,28.617,23.116,28.045,23.089z"/><path fill-rule="evenodd" clip-rule="evenodd" d="M54.43,18.334c1.156,0,2.053,0.896,2.053,2.052v6.983  c0,1.151-0.896,2.052-2.053,2.052s-2.052-0.901-2.052-2.052v-6.983C52.378,19.23,53.273,18.334,54.43,18.334z M35.57,18.334  c1.151,0,2.053,0.896,2.053,2.052v6.983c0,1.151-0.901,2.052-2.053,2.052c-1.156,0-2.057-0.901-2.057-2.052v-6.983  C33.514,19.23,34.414,18.334,35.57,18.334z M35.57,16.261c-2.271,0-4.13,1.855-4.13,4.126v6.983c0,2.271,1.859,4.131,4.13,4.131  c2.266,0,4.131-1.86,4.131-4.131v-2.203h10.594v2.203c0,2.271,1.864,4.131,4.135,4.131c2.271,0,4.125-1.86,4.125-4.131v-6.983  c0-2.271-1.854-4.126-4.125-4.126c-2.271,0-4.135,1.855-4.135,4.126v2.708H39.701v-2.708C39.701,18.116,37.836,16.261,35.57,16.261z  "/><path fill-rule="evenodd" clip-rule="evenodd" d="M23.972,42.901h2.563c0.839,0,1.479,0.647,1.479,1.491v2.76  c0,0.844-0.641,1.49-1.479,1.49h-2.563c-0.844,0-1.495-0.646-1.495-1.49v-2.76C22.477,43.548,23.128,42.901,23.972,42.901z   M23.972,40.818c-1.958,0-3.567,1.615-3.567,3.574v2.76c0,1.959,1.609,3.574,3.567,3.574h2.563c1.953,0,3.563-1.615,3.563-3.574  v-2.76c0-1.959-1.609-3.574-3.563-3.574H23.972z"/><path fill-rule="evenodd" clip-rule="evenodd" d="M23.972,56.193h2.563c0.839,0,1.479,0.65,1.479,1.495v2.766  c0,0.842-0.641,1.484-1.479,1.484h-2.563c-0.844,0-1.495-0.642-1.495-1.484v-2.766C22.477,56.843,23.128,56.193,23.972,56.193z   M23.972,54.121c-1.958,0-3.567,1.609-3.567,3.567v2.766c0,1.958,1.609,3.567,3.567,3.567h2.563c1.953,0,3.563-1.609,3.563-3.567  v-2.766c0-1.958-1.609-3.567-3.563-3.567H23.972z"/><path fill-rule="evenodd" clip-rule="evenodd" d="M37.133,42.901h2.563c0.839,0,1.49,0.647,1.49,1.491v2.76  c0,0.844-0.651,1.49-1.49,1.49h-2.563c-0.844,0-1.484-0.646-1.484-1.49v-2.76C35.648,43.548,36.289,42.901,37.133,42.901z   M37.133,40.818c-1.958,0-3.567,1.615-3.567,3.574v2.76c0,1.959,1.609,3.574,3.567,3.574h2.563c1.959,0,3.573-1.615,3.573-3.574  v-2.76c0-1.959-1.614-3.574-3.573-3.574H37.133z"/><path fill-rule="evenodd" clip-rule="evenodd" d="M37.133,56.193h2.563c0.839,0,1.49,0.65,1.49,1.495v2.766  c0,0.842-0.651,1.484-1.49,1.484h-2.563c-0.844,0-1.484-0.642-1.484-1.484v-2.766C35.648,56.843,36.289,56.193,37.133,56.193z   M37.133,54.121c-1.958,0-3.567,1.609-3.567,3.567v2.766c0,1.958,1.609,3.567,3.567,3.567h2.563c1.959,0,3.573-1.609,3.573-3.567  v-2.766c0-1.958-1.614-3.567-3.573-3.567H37.133z"/><path fill-rule="evenodd" clip-rule="evenodd" d="M50.3,42.901h2.563c0.844,0,1.489,0.647,1.489,1.491v2.76  c0,0.844-0.646,1.49-1.489,1.49H50.3c-0.839,0-1.489-0.646-1.489-1.49v-2.76C48.811,43.548,49.461,42.901,50.3,42.901z M50.3,40.818  c-1.958,0-3.563,1.615-3.563,3.574v2.76c0,1.959,1.604,3.574,3.563,3.574h2.563c1.958,0,3.567-1.615,3.567-3.574v-2.76  c0-1.959-1.609-3.574-3.567-3.574H50.3z"/><path fill-rule="evenodd" clip-rule="evenodd" d="M50.3,56.193h2.563c0.844,0,1.489,0.65,1.489,1.495v2.766  c0,0.842-0.646,1.484-1.489,1.484H50.3c-0.839,0-1.489-0.642-1.489-1.484v-2.766C48.811,56.843,49.461,56.193,50.3,56.193z   M50.3,54.121c-1.958,0-3.563,1.609-3.563,3.567v2.766c0,1.958,1.604,3.567,3.563,3.567h2.563c1.958,0,3.567-1.609,3.567-3.567  v-2.766c0-1.958-1.609-3.567-3.567-3.567H50.3z"/><path fill-rule="evenodd" clip-rule="evenodd" d="M63.472,42.901h2.563c0.839,0,1.479,0.647,1.479,1.491v2.76  c0,0.844-0.641,1.49-1.479,1.49h-2.563c-0.844,0-1.495-0.646-1.495-1.49v-2.76C61.977,43.548,62.628,42.901,63.472,42.901z   M63.472,40.818c-1.958,0-3.573,1.615-3.573,3.574v2.76c0,1.959,1.615,3.574,3.573,3.574h2.563c1.958,0,3.563-1.615,3.563-3.574  v-2.76c0-1.959-1.604-3.574-3.563-3.574H63.472z"/><path fill-rule="evenodd" clip-rule="evenodd" d="M63.472,56.193h2.563c0.839,0,1.479,0.65,1.479,1.495v2.766  c0,0.842-0.641,1.484-1.479,1.484h-2.563c-0.844,0-1.495-0.642-1.495-1.484v-2.766C61.977,56.843,62.628,56.193,63.472,56.193z   M63.472,54.121c-1.958,0-3.573,1.609-3.573,3.567v2.766c0,1.958,1.615,3.567,3.573,3.567h2.563c1.958,0,3.563-1.609,3.563-3.567  v-2.766c0-1.958-1.604-3.567-3.563-3.567H63.472z"/></svg>