<svg xmlns="http://www.w3.org/2000/svg" xmlns:xlink="http://www.w3.org/1999/xlink" version="1.1" x="0px" y="0px" enable-background="new 0 0 90 90" xml:space="preserve" viewBox="0 0 90 90"><path d="M67.925,14H21.972C14.218,14,8,19.67,8,27.287v28.266C8,63.166,14.218,69,21.972,69h4.594l2.225,6.571  c0.709,2.043,3.697,2.763,5.334,1.353L43.196,69h24.729C75.681,69,82,63.166,82,55.553V27.287C82,19.67,75.681,14,67.925,14z   M26.968,47.428c-3.412,0-6.178-2.762-6.178-6.172c0-3.406,2.766-6.172,6.178-6.172c3.406,0,6.172,2.766,6.172,6.172  C33.14,44.666,30.374,47.428,26.968,47.428z M44.952,47.428c-3.412,0-6.178-2.762-6.178-6.172c0-3.406,2.766-6.172,6.178-6.172  c3.406,0,6.172,2.766,6.172,6.172C51.124,44.666,48.358,47.428,44.952,47.428z M62.937,47.428c-3.412,0-6.178-2.762-6.178-6.172  c0-3.406,2.766-6.172,6.178-6.172c3.406,0,6.172,2.766,6.172,6.172C69.108,44.666,66.343,47.428,62.937,47.428z"/></svg>