<svg xmlns="http://www.w3.org/2000/svg" xmlns:xlink="http://www.w3.org/1999/xlink" version="1.1" x="0px" y="0px" enable-background="new 0 0 90 90" xml:space="preserve" viewBox="0 0 90 90"><path d="M13.881,27.749c0.692,0,1.249,0.557,1.249,1.251c0,0.687-0.557,1.249-1.249,1.249c-0.688,0-1.245-0.563-1.245-1.249  C12.636,28.307,13.193,27.749,13.881,27.749z M17.105,20.396c-2.089,0-4.317,1.129-5.609,3.229c-1.177,1.911-1.552,3.932-2.401,5.52  c-0.849,1.589-1.844,3.063-3.683,4.62c-1.421,1.199-1.781,2.917-0.755,4.323c1.025,1.401,2.453,1.652,5.063,1.084  c1.353-0.297,3.787,0.011,5.948-0.068c0.995-0.036,2.077-0.156,3.208-0.536c1.088-0.371,2.197-1.048,3.464-2.016  c0.405-0.312,0.911,0.156,0.495,0.563c-0.803,0.792-1.584,1.459-2.437,1.817c-1.177,0.489-1,0.803-0.595,1.787  c1.469,3.552,3.865,5.907,5.964,7.907c2.229,2.135,4.407,4.692,4.249,7.547l-0.557,10.115l-0.957,2.552  c-0.141,0.369,0.135,0.765,0.531,0.765h4.365l2.4-11.755c0.475-2.333,1.865-4.199,3.751-5.209c1.885-1.005,4.26-1.135,6.62-0.14  c5.791,2.453,9.541,1.255,11.989-0.417c2.719-1.859,5.787-2.801,8.631-2.629c2.837,0.172,5.468,1.511,7.083,4.104  c1.74,2.792,3.292,4.88,3.104,7.625l-0.359,5.145c0,0.068-0.016,0.131-0.037,0.192l-1.063,3.084h4.844  c0.292,0.005,0.537-0.213,0.568-0.5l1.479-11.792c0.324-2.541-0.828-5.015-1.567-7.052c-0.735-2.031-1.229-3.968-0.396-6.151  c0.224-0.573,0.599-0.703,0.771,0c0.593,2.459,1.328,4.869,2.552,6.937c0.735,1.421,2.839,0.177,1.948-1.151  c-2.437-4.12-2.74-10.661-4.355-16.089c-1.948-6.552-8.505-10.921-13.468-11.687c-2.245-0.349-4.767-0.313-7.557,0.104  c-8.995,1.339-13.459,0.916-16.756,0.323c-6.255-1.12-9.921-0.255-15.265,1.183c-0.677,0.181-0.792,0.333-1.073,0.812  c-0.776,1.308-2.239,2.093-4.515,2.495c-0.547,0.095-0.781-0.511-0.12-0.703c1.984-0.589,3.068-1.365,3.661-2.369  c0.416-0.709,0.511-1.683,0.579-2.693c0.02-0.328-0.292-0.401-0.683-0.375c-1.265,0.093-2.475,0.296-3.412,0.948  c-0.239,0.172-0.563,0.124-0.755-0.095C20.84,20.828,19.324,20.396,17.105,20.396z"/><path d="M59.569,53.328c-0.111,0.073-0.229,0.136-0.344,0.208c2.468,2.475,5.124,3.557,7.724,3.443  c0.176-0.011,0.348-0.036,0.525-0.057c0.932,3.109,0.579,7.24-0.755,10.339c-0.167,0.375,0.109,0.797,0.516,0.797h3.343  c0.245,0,0.453-0.156,0.532-0.385c1.239-3.563,1.703-7.432,1.583-11.167c-0.025-0.781-0.151-1.557-0.484-2.152  c-1.255-2.233-2.511-3.239-5.297-3.276C64.131,51.036,61.736,51.849,59.569,53.328z"/><path d="M41.797,53.317c-1.541,0.251-3.135,1.417-3.776,2.844c1.219,3.177,0.937,7.745-0.505,11.099  c-0.167,0.375,0.109,0.803,0.521,0.797h3.349c0.244,0,0.463-0.156,0.541-0.385c1.579-4.547,1.943-9.589,1.297-14.224  C42.736,53.349,42.251,53.244,41.797,53.317z"/></svg>