<svg xmlns="http://www.w3.org/2000/svg" xmlns:xlink="http://www.w3.org/1999/xlink" version="1.1" x="0px" y="0px" enable-background="new 0 0 90 90" xml:space="preserve" viewBox="0 0 90 90"><path d="M51.214,71.447l0.855,6.509l-2.964,0.787c-0.4-0.588-0.984-1.088-1.703-1.353l-0.781-5.543  C48.115,71.8,49.647,71.66,51.214,71.447z M27.334,12.389c1.073,0,1.943,0.869,1.943,1.943c0,1.072-0.869,1.943-1.943,1.943  c-1.068,0-1.937-0.871-1.937-1.943C25.397,13.258,26.266,12.389,27.334,12.389z M30.225,7.196c-3.135-0.073-6.088,1.213-7.697,3.688  c-1.579,2.421-3.047,3.541-5.333,4.776c-2.109,1.14-3.667,1.885-6.412,2.557c-1.167,0.287-1.224,1.489-0.724,2.031  c0.948,1.041,3.937,1.584,5.208,1.547l5.615-0.145c4.152-0.125,5.027,3.068,4.219,4.969c-3.78,8.937-9.421,20.343-6.588,28.077  c2.229,6.079,4.959,9.677,9.792,12.365c5.177,2.885,9.817,4.312,14.568,4.692l0.812,6.203l-5.948,1.584  c-1.724,0.459-2.536,0.968-2.536,2.651c0,0.328,0.265,0.595,0.593,0.595h19.484c4.095,0,3.251-4.376,0.511-5.396l-0.921-6.568  c12.281-2.932,21.801-16.489,25.072-25.047c0.943-2.589-0.9-4.521-2.796-3.177c0.755-2.099,1.208-4.063,0.156-5.26  c-0.719-0.824-1.636-0.491-2.516-0.188c0.333-1.245,0.407-3.776-1.072-4.385c-1.5-0.615-2.277,0.208-3.021,0.916  c-3.213,3.063-7.427,3.267-12.708,3.251c-5.276-0.011-12.251-0.235-19.032,2.323c-2.473,0.937-4.64,0.084-5.005-1.421  c-0.979-4.052,0.989-8.109,2.844-11.797c2.391-4.755,2.844-8.755,1.959-11.901C37.454,9.54,33.933,7.285,30.225,7.196z"/></svg>