<svg xmlns="http://www.w3.org/2000/svg" xmlns:xlink="http://www.w3.org/1999/xlink" version="1.1" x="0px" y="0px" enable-background="new 0 0 90 90" xml:space="preserve" viewBox="0 0 90 90"><path d="M79.797,47.625c0.307,0,0.609,0.068,0.891,0.199c0.848,0.391,1.395,1.301,1.395,2.307c0,1.379-1.025,2.505-2.285,2.505  s-2.287-1.126-2.287-2.505C77.51,48.746,78.537,47.625,79.797,47.625z M56.273,28.165h2.557c3.053,0,4.537,0.817,5.807,2.885  l4.932,8.041c0.797,1.317,0.365,2.271-0.848,2.271H55.805c-1.02,0-1.438-0.351-1.438-1.433v-10.02  C54.367,28.982,55.045,28.165,56.273,28.165z M7.311,21.468c-1.703,0-3.072,1.37-3.072,3.072c0,1.703,1.369,3.078,3.072,3.078  h22.045c1.375,0,2.479,1.104,2.479,2.479c0,1.375-1.104,2.479-2.479,2.479H10.941c-1.703,0-3.078,1.369-3.078,3.077  c0,1.703,1.375,3.073,3.078,3.073h12.695c1.375,0,2.484,1.108,2.484,2.479c0,1.375-1.109,2.484-2.484,2.484h-8.775  c-1.701,0-3.076,1.369-3.076,3.072s1.375,3.078,3.076,3.078h3.375c1.375,0,2.484,1.104,2.484,2.479s-1.109,2.479-2.484,2.479h-3.441  c-1.693,0.016-3.025,1.379-3.025,3.078c0,1.703,1.369,3.076,3.072,3.076h7.295c0-5.321,4.318-9.644,9.641-9.644  c2.557,0,5.01,1.021,6.816,2.828c1.807,1.807,2.828,4.259,2.828,6.815h14.064c0-5.321,4.318-9.644,9.641-9.644  c2.557,0,5.01,1.021,6.816,2.828c1.813,1.807,2.828,4.259,2.828,6.815h7.713c1.697,0,3.063-1.603,3.063-3.587v-6.843  c0-2.609-1.328-4.292-3.078-5.583l-4.5-3.332c-1.041-0.844-1.697-1.641-2.369-2.75l-6.541-11.405  c-3.453-6.025-7.619-5.983-11.998-5.983H7.311z"/><path d="M65.133,68.368c-4.094,0-7.416-3.322-7.416-7.421c0-4.093,3.322-7.416,7.416-7.416c1.963,0,3.854,0.787,5.244,2.177  c1.389,1.391,2.17,3.276,2.17,5.239C72.547,65.046,69.225,68.368,65.133,68.368z M65.133,63.727c1.535,0,2.779-1.243,2.779-2.779  c0-1.531-1.244-2.781-2.779-2.781c-1.537,0-2.781,1.25-2.781,2.781C62.352,62.483,63.596,63.727,65.133,63.727z"/><path d="M31.777,68.368c-4.094,0-7.416-3.322-7.416-7.421c0-4.093,3.322-7.416,7.416-7.416c1.969,0,3.854,0.787,5.244,2.177  c1.391,1.391,2.172,3.276,2.172,5.239C39.193,65.046,35.869,68.368,31.777,68.368z M31.777,63.727c1.535,0,2.781-1.243,2.781-2.779  c0-1.531-1.246-2.781-2.781-2.781c-1.537,0-2.781,1.25-2.781,2.781C28.996,62.483,30.24,63.727,31.777,63.727z"/></svg>