<svg xmlns="http://www.w3.org/2000/svg" xmlns:xlink="http://www.w3.org/1999/xlink" version="1.1" x="0px" y="0px" enable-background="new 0 0 90 90" xml:space="preserve" viewBox="0 0 90 90"><path fill-rule="evenodd" clip-rule="evenodd" d="M49.106,54.564c-1.016,0.583-1.625,1.547-1.625,2.577  c0,1.032,0.615,1.995,1.635,2.573c-1.995-0.063-3.567-1.199-3.567-2.573C45.548,55.767,47.115,54.631,49.106,54.564z M55.574,51.131  c-0.948,0.824-1.333,1.991-1.031,3.12c0.307,1.136,1.265,2.089,2.563,2.547c-2.219,0.281-4.281-0.681-4.688-2.197  C52.016,53.084,53.402,51.559,55.574,51.131z M41.839,51.131c-0.807,0.699-1.135,1.693-0.88,2.657  c0.261,0.968,1.079,1.776,2.177,2.167c-1.885,0.244-3.64-0.584-3.984-1.876C38.809,52.793,39.991,51.496,41.839,51.131z   M35.554,47.532c-1.043,0.595-1.667,1.584-1.667,2.636c0,1.057,0.629,2.047,1.676,2.645c-2.047-0.068-3.656-1.235-3.656-2.645  C31.907,48.762,33.511,47.6,35.554,47.532z M49.106,47.387c-1.147,0.651-1.829,1.735-1.829,2.891c0,1.161,0.688,2.244,1.839,2.896  c-2.244-0.073-4.009-1.344-4.009-2.896C45.11,48.736,46.866,47.464,49.106,47.387z M29.902,44.278  c-0.896,0.511-1.427,1.353-1.427,2.255c0,0.907,0.536,1.751,1.432,2.261c-1.749-0.057-3.125-1.053-3.125-2.261  C26.782,45.33,28.158,44.34,29.902,44.278z M54.907,43.642c-1.14,0.656-1.823,1.735-1.828,2.891  c0.005,1.161,0.693,2.245,1.839,2.896c-2.24-0.073-4.005-1.344-4.005-2.896C50.912,44.991,52.672,43.72,54.907,43.642z   M41.918,43.642c-1.141,0.656-1.823,1.735-1.828,2.891c0.005,1.161,0.692,2.245,1.839,2.896c-2.245-0.068-4.011-1.344-4.011-2.896  C37.923,44.991,39.678,43.72,41.918,43.642z M74.048,41.907c1.093,0,1.979,0.912,1.979,2.043c0,1.124-0.885,2.041-1.979,2.041  c-1.089,0-1.98-0.917-1.98-2.041C72.068,42.819,72.959,41.907,74.048,41.907z M35.554,40.439c-1.043,0.599-1.667,1.583-1.667,2.64  c0,1.057,0.629,2.043,1.676,2.641c-2.047-0.068-3.656-1.229-3.656-2.641C31.907,41.668,33.511,40.512,35.554,40.439z M49.106,39.898  c-1.147,0.651-1.829,1.733-1.829,2.891c0,1.161,0.688,2.244,1.839,2.9c-2.244-0.072-4.009-1.348-4.009-2.9  C45.106,41.246,46.866,39.975,49.106,39.898z M42.423,37.34c0.24,0,0.479,0.009,0.713,0.041c-1.104,0.391-1.916,1.203-2.177,2.167  c-0.255,0.964,0.073,1.959,0.88,2.656c-1.848-0.364-3.031-1.661-2.687-2.948C39.449,38.147,40.798,37.36,42.423,37.34z   M56.267,36.226c0.281,0,0.557,0.015,0.839,0.052c-1.297,0.459-2.256,1.405-2.563,2.541c-0.303,1.136,0.083,2.303,1.031,3.125  c-2.172-0.432-3.557-1.959-3.156-3.469C52.767,37.174,54.355,36.251,56.267,36.226z M49.106,32.996  c-1.016,0.583-1.625,1.547-1.625,2.577c0,1.032,0.615,1.996,1.635,2.573c-1.995-0.063-3.567-1.197-3.567-2.573  C45.548,34.199,47.115,33.064,49.106,32.996z M54.663,25.147c-2.401,3.823-11.261,6.26-16.276,7.38  c-3.672-2.291-7.469-4.276-10.229-3.973c1.672,1.729,3.801,5.287,4.135,7.547c-4.609,1.912-8.927,3.979-12.391,5.541  c-2.572,1.167-2.077,0.875-3.869-0.891L8.387,33.21c-1.527-1.505-3.881,0.375-2.043,3c2.152,3.068,5.849,12.407,1.855,19.297  c-1.172,2.031,1.323,3.687,2.281,2.437l5.552-7.251c1.531-1.995,1.427-1.328,3.869,0.095c3.781,2.192,8.041,4.911,12.152,6.963  c-0.688,2.391-2.464,5.595-3.896,7.079c1.156,0.125,2.629-0.38,4.203-1.172c1.573-0.787,3.245-1.855,4.781-2.844  c-0.339-0.333-0.636-0.781-0.885-1.224c5.479,1.776,11.645,2.375,16.292,2.38c3.703,0.005,8.463-1.005,13.181-2.563  c-2.719-3.083-4.233-7.567-4.509-9.432c-0.417-2.859-0.037-11.385,4.285-13.244c-2.057,3.489-3.156,8.219-2.457,12.963  c0.452,3.089,2.187,6.423,4.339,9.136c7.687-2.76,14.927-6.844,16.911-10.292l-5.927-0.479l4.213-3  c-4.167-5.683-14.527-12.037-27.432-14.016c0.776-0.307,1.76-0.167,2.984-0.235C58.136,28.33,55.887,25.783,54.663,25.147z"/></svg>