<svg xmlns="http://www.w3.org/2000/svg" xmlns:xlink="http://www.w3.org/1999/xlink" version="1.1" x="0px" y="0px" enable-background="new 0 0 90 90" xml:space="preserve" viewBox="0 0 90 90"><path d="M6.352,11.124H32.69c1.104,0,0.099,3.011,1.197,3.084l26.552,1.787c0.865,0.057,0.734,1.99,1.484,2.421  c1.386,0.803,2.631-0.459,1.438-2.517c-0.286-0.494-0.849-0.91-0.854-1.483c-0.011-1.156,0.708-1.536,1.953-1.203l4.775,1.281  c1.115,0.295,1.959,1,1.959,1.979c0,8.808,2.438,15.969,7.369,24.219c0.974,1.631-0.323,3.547,0.797,6.979l4.063,12.464  c1.427,4.365,0.302,8.838-0.755,12.781c-0.412,1.532-0.776,2.729-2.25,3.308l-6.308,2.479c-1.197,0.468-2.453-0.224-2.619-1.833  c-0.219-2.125-0.167-5.063-1.5-6.125c-1.026-0.818-2.948,0.375-3.891-0.531c-1.375-1.328,0.016-4.016-0.969-5.656  c-0.672-1.114-2.188-1.125-2.656-2.344c-0.459-1.204,1.322-3.104,0.266-3.844c-1.178-0.828-1.917,1.599-2.87,1.323  c-2.75-0.786-3.953-4.577-3.667-7.421c0.156-1.584,2.881-2.126,3.006-3.713c0.067-0.912-0.183-2.542-1.381-2.387  c-1.224,0.163-0.891,2.833-2.119,2.996c-0.823,0.109-1.276-0.74-1.495-1.543c-0.995-3.708,3.484-7.317,2.984-11.129  c-0.203-1.527-0.979-3.229-2.313-4c-1.271-0.115-1.833,0.172-2.88-0.423l-8.494-10.489c-0.84-1.036-3.334-1.156-4,0  c-0.871,1.51,0.166,1.969-1.563,2.708l-6.365,2.699c-0.776,0.333-1.561,0.254-2.061-0.355l-4.787-5.875  c-4.396-4.541-11.193-2.875-15.376-1.578c-1.64,0.505-2.421-0.349-2.036-1.87c0.292-1.15,1.089-1.442,0.812-2.479  c-0.254-0.953-1.79-1.146-2.083-2.084C5.893,12.224,5.804,11.124,6.352,11.124z"/></svg>