<svg xmlns="http://www.w3.org/2000/svg" xmlns:xlink="http://www.w3.org/1999/xlink" version="1.1" x="0px" y="0px" enable-background="new 0 0 90 90" xml:space="preserve" viewBox="0 0 90 90"><path d="M16.191,19.648c0.771,0,1.401,0.625,1.401,1.407c0,0.776-0.631,1.407-1.401,1.407c-0.776-0.005-1.405-0.631-1.405-1.407  C14.786,20.279,15.415,19.648,16.191,19.648z M27.238,10.982c-0.348-0.02-0.703-0.011-1.057,0.032  c-2.823,0.333-4.624,1.891-5.489,3.249c-1.905,0.027-3.801,0.792-5.041,2.437l-6.317,8.385c-0.912,1.213-1.005,2.901-0.261,4.156  c0.751,1.261,2.443,1.948,4.625,1.183c1.021-0.359,2.459-0.24,4.188-0.396c0.76-0.063,1.025-0.291,1.187-1.099  c0.245-1.208,0.683-2.531,0.641-3.912c-0.021-0.749,0.656-0.749,0.667,0c0.025,1.797-0.625,3.808-0.688,5.079  c-0.047,0.989,0.365,1.797,1.647,2.12c0.9,0.224,1.583-0.136,2.192-0.896c0.604-0.76,1.12-1.948,1.26-3.219  c0.235-2.145-0.312-4.469-1.025-5.26c-0.339-0.376,0.025-0.933,0.541-0.417c1.177,1.177,1.797,3.396,1.532,5.797  c-0.157,1.443-0.631,2.817-1.423,3.807c-0.531,0.672-1.255,1.152-2.072,1.308c2.343,5.203,2.765,10.735,3.667,16.635  c0.504,3.324,2.015,5.177,3.328,6.709c1.317,1.536,2.396,2.708,2.479,5.02l1.156,12.928l-2.203,3.609  c-0.151,0.375,0.12,0.78,0.52,0.78h4.652c0.421,0,0.629-0.119,0.687-0.604l2.281-19.807c0.037-0.281,0.276-0.5,0.563-0.5  c2.557,0,7.084,0.964,12.032,1.276c4.76,0.307,9.687,0.088,13.5-2.093c0.864-0.495,1.375-0.381,1.948,0.343  c0.859,1.089,1.739,2.199,2.645,3.219c1.849,2.084,3.579,4.611,3.287,7.251l-0.781,7c-0.251,1.016-1.839,2.031-2.109,3.047  c-0.109,0.423,0,0.88,0.593,0.88h5.147c0.271,0,0.504-0.192,0.556-0.457l2.792-13.636c0.552-2.693-0.468-5.088-1.208-7.432  c-0.74-2.344-1.245-4.604,0.005-7.281c1.297-2.771,0.797-6.901-0.183-9.953c1.704-1.312,2.959-3.235,3.683-5.109  c0.203-0.521-0.297-0.751-0.579-0.536c-0.301,0.228-0.624,0.369-0.953,0.479c0.505-1.344,0.667-2.792,0.272-4.26  c-0.1-0.38-0.548-0.543-0.871-0.319c-1.525,1.896-2.432,3.928-4.848,4.625c-2.901-3.135-7.704-4.088-12.923-3.323  c-2.692,0.401-7.437,1.656-12.255,1.579c-5.147-0.079-10.349,0.025-13.412-3.891l-9.432-12.068  c-0.953-1.213,0.131-2.647,1.151-3.021c1.308-0.484,3.579,0.287,4.917,1.052c0.5,0.287,1.057-0.292,0.76-0.792  C31.972,12.643,29.68,11.107,27.238,10.982z"/><path d="M65.286,58.378c-1.021,0.547-2.115,0.953-3.245,1.276c0.735,0.833,1.401,1.636,1.828,2.432  c0.505,0.937,0.719,1.849,0.489,2.907l-0.823,7.599l-2.667,3.537c-0.093,0.359,0.183,0.708,0.552,0.708h5.188  c0.271-0.005,0.5-0.193,0.552-0.453l2.792-13.412c-1.251-1.427-2.647-2.957-3.605-4.411C66.145,58.252,65.885,58.055,65.286,58.378z  "/><path d="M39.973,59.295c0.761,1.927,1.396,3.833,1.756,5.509c0.593,2.74,1.557,6.213,1.14,8.459l-2.317,2.781  c-0.161,0.375,0.115,0.792,0.52,0.792h4.829c0.239-0.005,0.452-0.152,0.531-0.375c1.531-4.396,1.188-11.412,0.136-16.344  C43.525,59.763,41.614,59.347,39.973,59.295z"/></svg>