<svg xmlns="http://www.w3.org/2000/svg" xmlns:xlink="http://www.w3.org/1999/xlink" version="1.1" x="0px" y="0px" enable-background="new 0 0 90 90" xml:space="preserve" viewBox="0 0 90 90"><path fill-rule="evenodd" clip-rule="evenodd" d="M44.999,7.014c9.755,0,18.635,3.667,25.353,9.692L59.259,27.799l2.287,3.595  l11.749-11.751c6.027,6.719,9.693,15.604,9.693,25.355c0,21.005-16.984,37.989-37.989,37.989c-9.751,0-18.636-3.667-25.355-9.692  l6.885-6.887c-0.031-0.187-0.052-0.38-0.052-0.577v-5.251l-9.771,9.776c-6.027-6.724-9.693-15.604-9.693-25.359  C7.014,23.998,23.999,7.014,44.999,7.014z M44.999,2.857c-23.251,0-42.141,18.891-42.141,42.141  c0,23.249,18.891,42.145,42.141,42.145c23.249,0,42.145-18.896,42.145-42.145C87.145,21.747,68.249,2.857,44.999,2.857z"/><path fill-rule="evenodd" clip-rule="evenodd" d="M34.129,19.066c-0.323,0.067-0.391,0.364-0.473,0.896l-0.552,3.619l-4.631,10.199  l23.349,3.823l4.88-10.412v-3c0-0.864-0.661-1.599-1.391-1.719l-20.765-3.396C34.374,19.045,34.238,19.045,34.129,19.066z"/><path fill-rule="evenodd" clip-rule="evenodd" d="M57.437,28.149l-1.38,3.057l4.077,3.557l0.469,0.735l-7.808,3.192v31.715  c0.448,0,0.824,0.02,1.36-0.261l6.073-3.135c0.432-0.224,0.848-0.505,1.129-0.828c0.287-0.319,0.443-0.647,0.443-1.063V35.009  L57.437,28.149z"/><path fill-rule="evenodd" clip-rule="evenodd" d="M28.196,34.977v30.86c0,0.864,0.661,1.599,1.391,1.719l20.547,3.344  c0.543,0.093,1.235,0.088,1.443-0.267V38.799L28.196,34.977z"/></svg>