<svg xmlns="http://www.w3.org/2000/svg" xmlns:xlink="http://www.w3.org/1999/xlink" version="1.1" x="0px" y="0px" enable-background="new 0 0 90 90" xml:space="preserve" viewBox="0 0 90 90"><path d="M74.405,10.531c-6.74-6.74-18.209-6.418-25.338,0.713L31.879,28.432c-7.131,7.129-7.453,18.594-0.714,25.334l0.916,0.922  c6.246,6.525,15.043-2.271,8.511-8.518l-0.916-0.914c-1.705-1.703-0.219-5.643,1.583-7.443l17.188-17.188  c1.802-1.803,4.323-1.869,6.025-0.166l5.017,5.016c1.702,1.703,1.636,4.223-0.167,6.025L67.9,32.928  c-6.896,6.619,2.754,16.27,9.379,9.379l1.422-1.426c7.13-7.131,7.458-18.594,0.719-25.334L74.405,10.531z"/><path d="M57.811,35.318c-6.244-6.531-15.042,2.266-8.511,8.51l0.917,0.916c1.703,1.703,0.219,5.641-1.584,7.449L31.452,69.375  c-1.803,1.803-4.328,1.869-6.032,0.166l-5.015-5.016c-1.704-1.703-1.636-4.229,0.171-6.031l1.422-1.422  c6.896-6.625-2.756-16.275-9.379-9.379l-1.429,1.42c-7.129,7.131-7.452,18.6-0.713,25.338l5.016,5.018  c6.74,6.74,18.208,6.416,25.339-0.713l17.183-17.184c7.13-7.129,7.452-18.598,0.714-25.338L57.811,35.318z"/></svg>