<svg xmlns="http://www.w3.org/2000/svg" xmlns:xlink="http://www.w3.org/1999/xlink" version="1.1" x="0px" y="0px" enable-background="new 0 0 90 90" xml:space="preserve" viewBox="0 0 90 90"><path d="M71.931,34.072c0,5.797-3.604,13.766-7.697,20.693l-13.141,22.23c-3.006,5.083-9.246,5.134-12.262,0.025l-13.16-22.255  c-4.094-6.932-7.703-14.896-7.703-20.693c0-14.896,12.078-26.984,26.979-26.984S71.931,19.171,71.931,34.072z M44.8,23.646  c-2.719,0.042-5.307,1.135-7.229,3.057c-4.068,4.068-4.068,10.672,0,14.75c4.078,4.068,10.682,4.068,14.75,0  c4.072-4.078,4.072-10.682,0-14.75C50.331,24.708,47.612,23.61,44.8,23.646z"/></svg>