<svg xmlns:dc="http://purl.org/dc/elements/1.1/" xmlns:cc="http://creativecommons.org/ns#" xmlns:rdf="http://www.w3.org/1999/02/22-rdf-syntax-ns#" xmlns:svg="http://www.w3.org/2000/svg" xmlns="http://www.w3.org/2000/svg" xmlns:sodipodi="http://sodipodi.sourceforge.net/DTD/sodipodi-0.dtd" xmlns:inkscape="http://www.inkscape.org/namespaces/inkscape" version="1.1" x="0px" y="0px" enable-background="new 0 0 90 90" xml:space="preserve" viewBox="0 0 90 90"><path fill-rule="evenodd" clip-rule="evenodd" d="M34.243,16.647c4.489,0,8.979,1.719,12.412,5.152  c6.864,6.864,6.858,17.952-0.006,24.817c-6.865,6.864-17.948,6.864-24.813,0c-6.864-6.865-6.869-17.953-0.004-24.817  C25.265,18.366,29.753,16.647,34.243,16.647z M34.243,8.852c-6.495,0-12.99,2.474-17.938,7.421c-9.891,9.896-9.891,25.979,0,35.874  c8.979,8.975,23.047,9.808,32.969,2.495l4.99,4.991l5.401-5.407l-4.986-4.989c7.309-9.923,6.476-23.991-2.5-32.964  C47.232,11.325,40.738,8.852,34.243,8.852z"/><path style="" d="M 64.8,55.445 55.482,64.762 71.784,81.064 81.092,71.746 80.16,70.809 Z" clip-rule="evenodd" fill-rule="evenodd"/></svg>