<svg xmlns="http://www.w3.org/2000/svg" xmlns:xlink="http://www.w3.org/1999/xlink" version="1.1" x="0px" y="0px" enable-background="new 0 0 90 90" xml:space="preserve" viewBox="0 0 90 90"><path fill-rule="evenodd" clip-rule="evenodd" d="M44.998,7.018c9.749,0,18.629,3.663,25.353,9.688L54.07,32.988  c0.412,0.719,0.813,1.312,1.287,1.792c0.437,0.437,0.969,0.812,1.615,1.187l16.323-16.317c6.027,6.719,9.693,15.604,9.693,25.355  c0,21.005-16.989,37.979-37.989,37.979c-9.751,0-18.631-3.661-25.355-9.687L36.138,56.8c-0.359-0.583-0.755-1.099-1.229-1.572  c-0.479-0.48-1.067-0.88-1.787-1.292L16.701,70.357c-6.025-6.719-9.688-15.599-9.688-25.353C7.013,24.004,23.993,7.018,44.998,7.018  z M44.998,2.862c-23.251,0-42.141,18.891-42.141,42.141c0,23.249,18.891,42.135,42.141,42.135c23.249,0,42.145-18.885,42.145-42.135  C87.143,21.753,68.247,2.862,44.998,2.862z"/><path fill-rule="evenodd" clip-rule="evenodd" d="M59.763,47.701c0.38,0.011,0.724,0.219,0.921,0.541  c0.865,1.401,1.433,3,1.589,4.667c0.167,1.505-2.109,1.724-2.224,0.215c-0.12-1.297-0.568-2.584-1.261-3.709  C58.305,48.66,58.867,47.676,59.763,47.701z M50.566,47.103c1.572,0.224,3.26,1.5,4.541,2.697c1.135,1.027-0.464,2.704-1.541,1.609  c-0.944-0.905-2.131-1.656-3.48-2.197C49.039,48.691,49.409,46.952,50.566,47.103z M52.758,42.441  c0.188,0.005,0.369,0.057,0.531,0.151c1.209,0.688,2.605,1.256,3.975,2.099c1.328,0.767,0.115,2.74-1.167,1.901  c-1.167-0.713-2.527-1.276-3.907-2.052C51.149,43.983,51.575,42.395,52.758,42.441z M43.717,41.629  c0.38-0.005,0.739,0.181,0.953,0.5c0.776,1.135,1.719,2.151,2.796,2.989c1.261,0.9-0.181,2.76-1.369,1.765  c-1.265-0.989-2.375-2.183-3.276-3.5C42.305,42.655,42.821,41.644,43.717,41.629z M46.487,36.223  c0.421-0.011,0.812,0.219,1.011,0.588c0.677,1.224,1.495,2.36,2.457,3.323c1.095,1.048-0.525,2.667-1.572,1.573  c-1.141-1.135-2.079-2.443-2.839-3.817C45.122,37.155,45.643,36.239,46.487,36.223z M38.951,34.124  c0.119,0.009,0.249,0.052,0.375,0.119c1.385,0.776,2.511,2.573,3.271,4.152c0.697,1.364-1.401,2.353-2.016,0.948  c-0.552-1.183-1.391-2.313-2.459-3.303C37.43,35.291,38.086,34.051,38.951,34.124z M41.133,29.362  c0.188-0.005,0.371,0.037,0.537,0.125c0.672,0.339,1.328,0.745,1.937,1.245c0.739,0.604,1.328,1.328,1.792,2.093  c0.776,1.271-1.136,2.432-1.907,1.161c-0.365-0.593-0.797-1.125-1.292-1.525c-0.005,0-0.005-0.005-0.011-0.005  c-0.453-0.376-0.968-0.699-1.531-0.985C39.622,30.952,39.971,29.395,41.133,29.362z M34.211,27.717  c0.973-0.005,1.859,0.068,2.937,0.276c1.459,0.281,1.052,2.448-0.412,2.188c-0.979-0.172-2.219-0.349-3.364-0.215  c-1.541,0.183-1.724-2.145-0.172-2.219C33.555,27.728,33.889,27.717,34.211,27.717z M35.831,22.518  c-0.579,0-1.156,0.032-1.729,0.095c-2.375,0.281-3.213,0.891-5.828,0.208c-1.828-0.479-3.371,0.131-4.563,1.312  c-1.193,1.188-1.407,3.079-1.303,4.797c0.1,1.713,0.437,3.412,0.328,5.099c-0.281,4.511,1.157,9.448,4.901,13.193  c0,0,0.005,0,0.011,0c1.609,1.609,3.385,2.495,4.995,3.296c1.609,0.803,3.041,1.516,4.251,2.724  c1.203,1.204,2.036,2.595,2.728,4.256c4.464,10.74,17.729,12.765,24.251,6.24c5.495-5.5,4.823-14.891-1.245-20.959  c-1.609-1.609-3.391-2.489-5-3.292c-1.609-0.797-3.047-1.521-4.255-2.724c-1.208-1.208-1.921-2.64-2.719-4.249  c-0.803-1.609-1.693-3.396-3.297-5.011C44.091,24.243,39.894,22.54,35.831,22.518z"/></svg>