<svg xmlns="http://www.w3.org/2000/svg" xmlns:xlink="http://www.w3.org/1999/xlink" version="1.1" x="0px" y="0px" enable-background="new 0 0 90 90" xml:space="preserve" viewBox="0 0 90 90"><path d="M45.348,11.316c-9.142-0.134-17.948,3.439-24.412,9.904c-13.209,13.209-13.209,34.625,0,47.834  c13.208,13.21,34.624,13.21,47.834,0.002c0-0.001,0.001-0.001,0.001-0.002c13.209-13.209,13.209-34.625,0-47.834  C62.549,14.998,54.146,11.445,45.348,11.316z M35.863,30.748h1.184c2.077,0,3.75,1.673,3.75,3.75v21.279  c0,2.077-1.673,3.75-3.75,3.75h-1.184c-2.078,0-3.75-1.673-3.75-3.75V34.498C32.113,32.421,33.785,30.748,35.863,30.748z   M52.66,30.748h1.184c2.077,0,3.75,1.673,3.75,3.75v21.279c0,2.077-1.673,3.75-3.75,3.75H52.66c-2.078,0-3.75-1.673-3.75-3.75  V34.498C48.91,32.421,50.582,30.748,52.66,30.748z"/></svg>