<svg xmlns:dc="http://purl.org/dc/elements/1.1/" xmlns:cc="http://creativecommons.org/ns#" xmlns:rdf="http://www.w3.org/1999/02/22-rdf-syntax-ns#" xmlns:svg="http://www.w3.org/2000/svg" xmlns="http://www.w3.org/2000/svg" xmlns:sodipodi="http://sodipodi.sourceforge.net/DTD/sodipodi-0.dtd" xmlns:inkscape="http://www.inkscape.org/namespaces/inkscape" version="1.1" x="0px" y="0px" enable-background="new 0 0 90 90" xml:space="preserve" viewBox="0 0 90 90"><path style="" d="M 35.445,10.591 21.598,26.544 V 32.689 H 24.992 V 28.878 H 37.92 V 13.998 H 65.071 V 32.689 H 68.472 V 10.591 Z" clip-rule="evenodd" fill-rule="evenodd"/><path d="M 54.055,39.112 H 64.144 V 41.585 H 57.019 V 44.809 H 63.248 V 47.304 H 57.019 V 53.279 H 54.055 V 39.112 Z M 44.702,39.112 C 48.54,39.112 51.273,42.913 51.273,46.044 51.273,49.752 48.232,53.278 45.149,53.278 H 39.221 L 39.2215,39.112 Z M 25.931,39.112 H 32.181 C 35.03,39.112 36.722,41.121 36.722,43.7 36.722,46.554 34.722,48.138 32.181,48.138 H 28.894 V 53.279 H 25.932 V 39.112 Z M 17.696,35.388 V 57.544 H 21.597 V 73.93 L 35.712,73.941 32.587,70.54 24.992,70.534 V 57.544 H 65.071 V 70.57 L 57.462,70.559 54.342,73.961 68.472,73.971 V 57.544 H 72.379 V 35.388 Z" style="" clip-rule="evenodd" fill-rule="evenodd"/><path d="M 28.894,45.726 H 31.713 C 33.322,45.726 34.119,44.93 34.119,43.613 34.119,42.05 32.911,41.565 31.713,41.565 L 28.894,41.5645 Z" style="" clip-rule="evenodd" fill-rule="evenodd"/><path d="M 42.103,50.867 H 44.555 C 47.519,50.867 48.222,48.304 48.243,46.045 48.264,43.316 47.014,41.565 44.3,41.565 L 42.103,41.5645 Z" style="" clip-rule="evenodd" fill-rule="evenodd"/><path style="" d="M 40.374,60.32 V 69.154 H 37.134 V 70.55 L 45.248,79.378 53.363,70.55 V 69.154 L 50.118,69.143 V 60.32 Z"/></svg>