<svg xmlns="http://www.w3.org/2000/svg" xmlns:xlink="http://www.w3.org/1999/xlink" version="1.1" x="0px" y="0px" enable-background="new 0 0 90 90" xml:space="preserve" viewBox="0 0 90 90"><path d="M17.123,36.899c1.199,0,2.172,0.973,2.172,2.176c0,1.199-0.973,2.172-2.172,2.172c-1.197,0-2.167-0.973-2.167-2.172  C14.956,37.872,15.926,36.899,17.123,36.899z M81.27,19.55c-0.339-0.005-0.683,0.025-1.032,0.109  c-1.708,0.391-2.64,2.011-2.448,3.407c0.199,1.396,1.448,2.276,3.147,2.276c1.635,0.063,1.635-1.839,0-1.803  c-1.281,0.027-1.005-1.369-0.167-1.583c0.703-0.177,1.125,0.005,1.511,0.364c0.38,0.36,0.681,0.979,0.729,1.708  c0.083,1.313-0.933,2.86-3.115,3.688c-3.964-3.412-9.48-5.625-16.172-4.76c-9.975,1.291-14.505,0.973-19.823,0.619  c-5.319-0.353-9.387-0.749-14.131,0.439c-2.765,0.692-4.636,1.656-6.016,2.552c-0.505,0.328-0.683,0.839-0.557,1.484  c0.147,0.745-0.109,0.907-0.667,0.473l-0.531-0.411l-5.928-5.161c-0.192-0.167-0.395-0.235-0.588-0.213  c-0.323,0.025-0.609,0.276-0.697,0.656c-0.776,3.213-0.907,6.005,0.771,9.64c-3.771,4.104-5.98,5.375-10.391,7.089  c-0.704,0.276-1.161,0.895-1.428,1.572c-0.26,0.683-0.343,1.459-0.301,2.219c0.041,0.767,0.208,1.511,0.541,2.141  c0.333,0.629,0.855,1.177,1.584,1.317c3.509,0.693,6.115,2.437,9.395,4.26c3.215,1.787,7.068,3.615,12.923,4.439  c0.104,4.208-0.547,8.776-1.839,13.635c-0.104,0.375,0.183,0.745,0.568,0.745h6.083c0.104,0,0.199-0.032,0.281-0.079  c2.063-4.339,4.057-10.407,3.901-16.776c-0.031-1.183,1.027-0.797,1.14-0.079c0.199,1.215,0.391,1.948,0.36,3.1  c8.833,1.4,16.703,1.145,25.651-0.152c-0.905-1.615-1.287-2.785-1.677-4.208c-0.219-0.796,0.609-1.135,0.876-0.359  c0.921,2.64,2.651,5.457,6.812,6.583c0.464,0.109,0.604,0.573,0.552,1.041c-0.339,3.215-0.787,6.62-1.735,10.183  c-0.099,0.375,0.183,0.745,0.573,0.745h6.073c0.213,0,0.405-0.115,0.515-0.303c2.152-3.817,4.819-10.156,5.105-17.213  c4.875-5.047,7.145-12.005,4.02-18.464c-0.719-1.489-1.683-2.957-2.844-4.333c2.229-1.515,3.193-4.26,3.063-6.26  c-0.083-1.255-0.568-2.443-1.468-3.287C83.218,19.962,82.286,19.571,81.27,19.55z"/><path d="M65.234,57.935c-1.611,0.249-3.261,0.453-4.928,0.631c-0.135,2.979-0.656,6.14-1.531,9.473  c-0.099,0.375,0.177,0.745,0.568,0.745h4.509c0.215,0,0.412-0.12,0.516-0.308c1.245-2.235,2.688-5.463,3.568-9.187  C66.437,58.883,66.03,58.394,65.234,57.935z"/><path d="M38.223,58.184c-0.287,2.485-0.844,4.86-1.527,7.043c0.521,1.213,1.057,2.339,1.568,3.249  c0.099,0.188,0.297,0.308,0.511,0.308h4.511c0.391,0,0.671-0.371,0.567-0.745c-0.859-3.281-1.369-6.396-1.515-9.339  C40.952,58.56,39.571,58.394,38.223,58.184z"/></svg>