<svg xmlns="http://www.w3.org/2000/svg" version="1.1" viewBox="-5.0 -10.0 110.0 110.0">
 <path d="m48.047 96.801v-17.141c-17.484 2.2852-20.406-6.0625-28.223-20.383l0.21875-0.46484c12.789-2.6094 25.027-0.34766 28.008 14.445l-0.003906-22.266c-14.906 1.9453-17.445-5.0742-24.156-17.445-0.53125-0.98047 6.1328-1.2383 6.7695-1.2539 9.0625-0.22656 15.469 3.7266 17.387 12.906v-16.012c-2.8633-3.2031-6.0625-7.2539-6.3164-11.277-0.33984-5.4141 4.6016-10.957 8.0352-14.609 0.12109-0.12891 0.32031-0.13281 0.44922-0.011719 3.4453 3.668 8.3906 9.2109 8.0469 14.625-0.25391 4.0234-3.4531 8.0703-6.3164 11.277v16.055c2.5898-12.496 13.156-14.359 23.949-12.16 0.73047 0.14844-0.55469 1.8711-1.3203 3.2812-5.9766 11.023-9.0312 16.402-22.629 14.629v22.309c2.9648-14.82 15.199-17.098 28.016-14.484l0.21484 0.46484c-7.8203 14.199-10.609 22.688-28.23 20.383v17.133z" fill-rule="evenodd"/>
</svg>