<svg xmlns="http://www.w3.org/2000/svg" xmlns:xlink="http://www.w3.org/1999/xlink" version="1.1" x="0px" y="0px" enable-background="new 0 0 90 90" xml:space="preserve" viewBox="0 0 90 90"><path d="M45.348,11.316c-9.142-0.134-17.948,3.439-24.412,9.904c-13.209,13.209-13.209,34.625,0,47.834  s34.624,13.209,47.834,0c13.208-13.209,13.208-34.625,0-47.834C62.547,14.998,54.146,11.445,45.348,11.316z M35.445,32.461  c0.555-0.076,1.199,0.355,1.807,0.67l20.92,10.844c0.809,0.42,0.819,1.929,0,2.328l-20.92,10.846c-0.82,0.399-1.684,1.045-2.328,0.4  V32.73C35.085,32.569,35.26,32.486,35.445,32.461z"/></svg>