<svg xmlns="http://www.w3.org/2000/svg" xmlns:xlink="http://www.w3.org/1999/xlink" version="1.1" x="0px" y="0px" enable-background="new 0 0 90 90" xml:space="preserve" viewBox="0 0 90 90"><path d="M35.915,61.146h3.24c0.948,0,1.708,0.797,1.708,1.792v1.479c0,0.995-0.76,1.792-1.708,1.792h-3.24  c-0.948,0-1.708-0.797-1.708-1.792v-1.479C34.207,61.943,34.967,61.146,35.915,61.146z M15.734,61.146h13.729  c0.947,0,1.708,0.797,1.708,1.792v1.479c0,0.995-0.762,1.792-1.708,1.792H15.734c-0.948,0-1.71-0.797-1.71-1.792v-1.479  C14.024,61.943,14.786,61.146,15.734,61.146z M15.734,52.104h23.421c0.948,0,1.708,0.802,1.708,1.791v1.485  c0,0.989-0.76,1.787-1.708,1.787H15.734c-0.948,0-1.71-0.798-1.71-1.787v-1.485C14.024,52.906,14.786,52.104,15.734,52.104z   M15.734,43.067h12.219c0.942,0,1.702,0.798,1.702,1.787v1.484c0,0.991-0.76,1.787-1.702,1.787H15.734  c-0.948,0-1.71-0.796-1.71-1.787v-1.484C14.024,43.865,14.786,43.067,15.734,43.067z M60.176,23.786h12.656  c1.687,0,3.042,1.345,3.042,3.005v10.167c0,1.667-1.355,3.006-3.042,3.006H60.176c-1.688,0-3.043-1.339-3.043-3.006V26.791  C57.133,25.13,58.488,23.786,60.176,23.786z M16.113,15c-6.057,0-10.937,4.322-10.937,9.687v40.62c0,5.369,4.88,9.693,10.937,9.693  h57.672c6.057,0,10.937-4.324,10.937-9.693v-40.62c0-5.365-4.88-9.687-10.937-9.687H16.113z"/></svg>