<svg xmlns="http://www.w3.org/2000/svg" xmlns:xlink="http://www.w3.org/1999/xlink" version="1.1" x="0px" y="0px" enable-background="new 0 0 90 90" xml:space="preserve" viewBox="0 0 90 90"><path fill-rule="evenodd" clip-rule="evenodd" d="M21.704,35.097c1.052,0,1.905,0.855,1.905,1.907s-0.853,1.9-1.905,1.9  c-1.052,0-1.907-0.848-1.907-1.9S20.652,35.097,21.704,35.097z M30.928,12.701c-0.464,0.011-0.991,0.276-1.609,1.027  c-1.24,1.509-2.235,4.28-2.584,7.504c-0.208,1.953-0.167,4.068,0.109,6.183c-6.161,0.855-12.041,5.391-13.588,12.469  c-0.729,3.244-0.469,5.271,0.719,6.62c1.181,1.343,3.525,2.129,7.271,2.541c2.364,0.265,1.645,1.448,1.573,2.421  c-0.423,5.464,0.744,8.48,2.192,10.808c1.505,2.427,3.421,4.145,3.625,6.927L28.5,71.889c-0.063,1.26-0.495,1.781-1.968,2.192  c-1.245,0.344-2.147,0.984-2.297,2.052c-0.151,1.095,0.839,1.147,1.527,1.147h5.713c0.973,0,1.391-0.855,1.681-1.557  c0.953-2.224,2.625-6.715,2.975-9.021c3.635,2.473,10.276,5.131,14.688,4.172c1.4-0.312,1.301,0.833,0.093,1.156  c-1.869,0.505-3.48,0.787-5.089,2.375c-0.364,0.36-0.681,0.776-0.76,1.297c-0.224,1.407,1.213,1.557,2.073,1.557h11.276  c3.859,0,7.104-1.943,9.52-4.828c1.215-0.193,2.396-0.541,3.448-1.057c6.975-3.412,5.776-12.141,1.959-10.369  c-0.301,0.14-0.568,0.244-0.849,0.369c0.1-0.927,0.147-1.849,0.109-2.745c-0.203-5.208-2.588-10.005-6.28-13.708  c-5.781-5.797-14.715-8.817-23.229-6.312c-1.667,0.489-3.319,1.172-4.937,2.077c-0.443,0.245-0.991-0.052-1.027-0.557  c-0.183-2.776-0.921-4.817-1.817-6.457c0.015-0.021,0.025-0.048,0.047-0.068c4.635-4.5,8.307-10.828,8.516-14.969  c0.061-1.197-0.073-2.129-0.313-2.787c-0.239-0.651-0.547-1.005-0.927-1.192c-0.188-0.089-0.417-0.147-0.683-0.151  c-0.807-0.016-1.963,0.411-3.411,1.541c-3.579,3.203-5.933,6.907-7.115,11.943c-0.229,0.995-1.213,0.656-0.995-0.24  c0.807-3.281,2.192-6.364,3.828-8.937c-0.475-2.781-1.365-4.817-2.219-5.64C31.682,12.831,31.396,12.69,30.928,12.701z"/></svg>