<svg xmlns="http://www.w3.org/2000/svg" xmlns:xlink="http://www.w3.org/1999/xlink" version="1.1" x="0px" y="0px" enable-background="new 0 0 90 90" xml:space="preserve" viewBox="0 0 90 90"><path fill-rule="evenodd" clip-rule="evenodd" d="M46.184,27.161c9.816,0,17.813,8,17.813,17.818  c0,9.822-7.996,17.811-17.813,17.811c-9.824,0-17.813-7.988-17.813-17.811C28.371,35.161,36.359,27.161,46.184,27.161z   M46.184,15.839c-7.053,0-13.527,2.516-18.568,6.693c0.322,1.104,0.568,2.26,0.697,3.447c0.766,6.922-1.979,13.563-7.125,16.729  l0.98,18.754c5.254,7.637,14.051,12.652,24.016,12.652c10.176,0,19.135-5.234,24.348-13.152l0.787-18.879  c-0.85-0.488-1.729-0.869-2.475-1.678c-1.182-1.281-2.104-3.135-2.004-5.264l0.469-10.213  C61.996,19.333,54.496,15.839,46.184,15.839z"/><path fill-rule="evenodd" clip-rule="evenodd" d="M50.219,33.032c4.99,1.682,8.584,6.385,8.584,11.947  c0,5.557-3.594,10.266-8.584,11.947c3.162-2.51,5.266-6.918,5.266-11.947C55.484,39.946,53.381,35.542,50.219,33.032z   M46.184,29.745c-8.422,0-15.234,6.816-15.234,15.234c0,8.416,6.813,15.229,15.234,15.229c8.416,0,15.234-6.813,15.234-15.229  C61.418,36.562,54.6,29.745,46.184,29.745z"/><path fill-rule="evenodd" clip-rule="evenodd" d="M74.984,14.224c-0.66,0.01-1.188,0.553-1.176,1.215v15.428  c0,1.395-2.1,1.395-2.1,0l0.713-15.367c0.047-0.719-0.557-1.311-1.275-1.26c-0.615,0.041-1.094,0.541-1.109,1.15l-0.916,19.85  c-0.131,2.912,2.363,4.813,4.541,5.707L72.387,71.37c0,2.416,2.01,4.357,4.504,4.357s4.506-1.941,4.506-4.357l-1.277-30.424  c2.178-0.895,4.678-2.795,4.543-5.707L83.75,15.39c-0.021-0.609-0.5-1.109-1.115-1.15c-0.719-0.051-1.316,0.541-1.275,1.26  l0.713,15.367c0,1.395-2.098,1.395-2.098,0V15.438c0.01-0.662-0.516-1.205-1.178-1.215c-0.672-0.01-1.225,0.537-1.213,1.215  l0.129,15.428c0.006,0.682-0.441,0.891-0.822,0.891c-0.379,0-0.828-0.209-0.822-0.891l0.131-15.428  C76.209,14.761,75.656,14.214,74.984,14.224z"/><path fill-rule="evenodd" clip-rule="evenodd" d="M15.59,17.136c-6.35,6.35-5.34,16.059-1.984,21.863  c-3.387-1.363-6.219-6.66-5.578-12.451C8.662,20.757,12.215,17.136,15.59,17.136z M15.59,14.495c-5.105,0-9.438,5.004-10.184,11.762  c-0.744,6.758,2.324,13.229,7.215,15.195l-1.543,29.521c0,2.41,2.021,4.484,4.512,4.484c2.488,0,4.51-2.074,4.51-4.484  l-1.541-29.521c4.885-1.967,7.953-8.438,7.207-15.195C25.021,19.499,20.693,14.495,15.59,14.495z"/></svg>