<svg xmlns="http://www.w3.org/2000/svg" xmlns:xlink="http://www.w3.org/1999/xlink" version="1.1" x="0px" y="0px" enable-background="new 0 0 90 90" xml:space="preserve" viewBox="0 0 90 90"><path d="M16.569,24.998c0.864,0,1.561,0.697,1.561,1.557c0,0.864-0.697,1.561-1.561,1.561c-0.86,0-1.557-0.697-1.557-1.561  C15.012,25.695,15.709,24.998,16.569,24.998z M23.021,16.341c-0.875,0.021-1.661,0.401-2.323,0.991  c-0.568-0.412-1.224-0.557-1.828-0.491c-0.724,0.084-1.385,0.428-1.839,0.907c-0.833,0.875-1.156,2.115-0.875,3.281l-6.041,9.255  c-0.88,1.344-0.953,3.089-0.125,4.355c0.828,1.265,2.579,1.948,5.041,1.224l6.484-1.937c-1.14,1.984-0.072,4.063,1.735,5.088  c-0.729,0.74-1.115,1.776-1.015,2.828c0.109,1.136,0.755,2.141,1.723,2.72c-0.468,1.02-0.437,2.208,0.115,3.203  c0.521,0.943,1.439,1.588,2.48,1.776c-0.391,0.984-0.339,2.104,0.187,3.047c0.579,1.047,1.652,1.724,2.839,1.817  c0.313,1.204,1.183,1.995,2.251,2.511c0.177,0.661,0.317,1.36,0.385,2.167l1.468,11.057l-2.077,3  c-0.104,0.245,0.077,0.521,0.344,0.521h4.667c0.197,0,0.359-0.152,0.375-0.349l1.583-18.427c0.475,2.52,3.505,3.364,5.563,3.457  c1.876,0.089,4.652-0.093,5.876-1.443c0.667,0.819,1.676,1.313,2.755,1.313c1.079,0,2.088-0.495,2.76-1.313  c0.667,0.819,1.677,1.313,2.756,1.313c1.072,0,2.067-0.489,2.739-1.303c0.453,0.62,1.844,1.656,3.876,1.505  c1.895-0.14,2.828-1,3.421-1.593c1.027,0.984,2.62,1.301,4.245,1.093c0.979,1.365,1.405,3.333,0.853,5.469l-0.88,7.077l-2.208,2.719  c-0.068,0.245,0.12,0.485,0.369,0.48h5.005c0.177,0,0.333-0.125,0.369-0.303l2.355-11.161c0.557-2.661,0.224-4.823-0.735-7.235  c1.428-1.979,1.609-4.453,0.625-6.167c0.896-0.463,1.568-1.291,1.812-2.301c0.272-1.095,0-2.245-0.708-3.104  c0.823-0.745,1.26-1.844,1.151-2.969c-0.104-1.131-0.744-2.125-1.703-2.703c0.521-0.989,0.552-2.177,0.057-3.193  c-0.489-1.016-1.432-1.729-2.521-1.943c0.157-1.104-0.208-2.224-1.004-3.02c-0.833-0.833-2.027-1.193-3.177-0.975  c-0.656-0.964-1.745-1.557-2.923-1.557c-1.077,0-2.088,0.495-2.76,1.317c-0.667-0.823-1.677-1.317-2.755-1.317  c-1.079,0-2.084,0.5-2.751,1.323c-0.672-0.823-1.677-1.323-2.755-1.323c-1.079,0-2.089,0.495-2.756,1.317  c-0.672-0.823-1.681-1.317-2.76-1.317c-1.079,0-2.088,0.495-2.755,1.317c-0.672-0.823-1.677-1.317-2.756-1.317  c-1.083,0-2.088,0.5-2.755,1.323c-0.672-0.823-1.672-1.323-2.756-1.323c-0.953,0-1.848,0.385-2.509,1.036  c-0.251-0.891-0.849-1.667-1.677-2.135c-0.937-0.536-2.052-0.599-3.043-0.213c-0.176-1.047-0.807-1.975-1.744-2.505  c-0.688-0.385-1.469-0.532-2.224-0.432c0.875-1.261,1.317-2.792,1.312-4.912c0-0.219-0.181-0.391-0.401-0.375  c-1.765,0.129-3.656,0.249-5.109,1.515c-0.224-0.943-0.796-1.817-1.676-2.265C24.1,16.455,23.548,16.337,23.021,16.341z"/><path d="M68.261,58.018c-0.563,0.589-1.287,1.079-2.303,1.339c-0.541,0.136-1.124,0.219-1.713,0.251  c0.969,1.62,1.552,3.427,1.199,4.905l-0.511,5.959l-2.208,2.713c-0.063,0.245,0.124,0.475,0.369,0.475h4.297  c0.177,0,0.328-0.12,0.369-0.297l3.563-14.172C70.209,59.097,69.146,58.722,68.261,58.018z"/><path d="M41.1,59.086c1.333,3.027,3.125,7.921,2.484,11.385L41.6,73.138c-0.104,0.245,0.079,0.521,0.344,0.521h3.864  c0.161,0,0.303-0.099,0.355-0.251c1.391-4.005,0.891-9.369-0.068-13.848c-0.683,0.004-1.359,0.077-1.973,0.072  C43.042,59.622,42.037,59.373,41.1,59.086z"/></svg>