<svg xmlns="http://www.w3.org/2000/svg" xmlns:xlink="http://www.w3.org/1999/xlink" version="1.1" x="0px" y="0px" enable-background="new 0 0 90 90" xml:space="preserve" viewBox="0 0 90 90"><path d="M45.055,66.736c-2.371-1.037-5.319-1.063-7.991-0.901c-1.296,0.077-1.348,0.505-0.885,1.468  c0.521,1.084,1.063,2.161,1.667,3.172c1.599-0.208,3.328-0.12,5.193,0.469c1.317,0.411,2.401,1.52,3.229,2.968  c-1.219-0.796-2.423-1.52-3.609-1.765c-3.417-0.697-6.907,1.369-9.808,3.443c-1.057,0.756-0.875,1.147,0.032,1.713  c2.213,1.396,4.489,2.724,6.875,3.224c3.068,0.641,6.615,0.089,8.911-1.099c-0.765-2.495-0.38-4.344,1.548-5.937  c-0.928-2-1.709-4.104-3.016-5.349C46.57,67.537,45.846,67.078,45.055,66.736z"/><path d="M33.044,32.042c1.177-0.083,2.203,0.839,2.287,2.052c0.083,1.219-0.803,2.271-1.98,2.355  c-1.183,0.083-2.203-0.839-2.292-2.057C30.976,33.178,31.867,32.126,33.044,32.042z M51.632,9.22c-0.197-0.032-0.375-0.027-0.531,0  c-1.084,0.192-1.141,1.573,0.197,1.651c3.245,0.183,4.625,2.265,4.276,4.183c-0.683-0.297-1.453-0.532-2.344-0.647  c-1.577-0.192-1.885,1.448-0.343,1.516c1.5,0.109,2.667,0.516,3.604,1.437c1.937,1.901,0.213,5.459-4.505,5.349  c-11.448-0.265-17.953-0.511-28.063-2.36c-4.355-0.791-7.896-0.489-10.532,0.944c-1.733,0.943-3.004,2.285-3.833,3.807  c0-0.735,0.068-1.453,0.209-2.115c0.88-4.104,3.817-5.755,7.041-6.093c1.464-0.152,2.979,0.015,4.407,0.249  c11.932,1.964,16.88,2.511,28.785,2.86c2.729,0.077,4.652-0.704,5.839-1.875c-0.265-0.527-0.791-0.881-1.468-1.043  c-0.865,0.756-2.167,1.251-3.923,1.193c-11.385-0.371-17.629-1.005-27.9-2.948c-4.355-0.823-7.855-0.589-10.459,0.953  c-2.609,1.541-4.183,4.104-4.688,6.823c-0.697,3.708,0.297,8.203,3.647,10.505c5.577,3.839,11.651,6.849,18.291,7.525  c-1.427,0.385-2.733,0.631-4.093,0.719c-1.859,0.12-2.172,0.589-0.099,1.532c5.407,2.463,13.833,2.801,20.183,3.724  c8.776,0.683,12.624-3.208,12.541-9c-0.089-6.151-2.443-12.188-11.261-11.563c-5.989,0.427-15.031,1.781-20.905,4.109l-7.251,2.875  c-5.353-0.932-8.703-2.369-7.833-5.963c1.328-5.48,7.391-6.256,11.953-5.459c11.136,1.953,16.975,1.937,28.948,2.177  c7.448,0.151,9.063-5.428,5.588-8.303C57.867,13.193,55.955,9.86,51.632,9.22z"/><path d="M56.987,28.579c7.057,0.095,11.844,1.849,15.729,5.109c2.432,2.043,2.776,3.797,2.391,6.595  c-0.833,6.057-4.5,9.385-9.349,10.729c-4.089-1.177-6.584-3.131-9.265-5.131C60.731,42.064,61.154,33.297,56.987,28.579z"/><path d="M77.096,38.277c3.068,4.672,5.484,10.093,5.677,15.479c0.093,2.693-0.464,4.151-2.521,5.527  c-1.688,1.12-3.693,1.921-5.697,2.364c-2.521,0.552-5.027,0.5-6.871-0.063c-2.129-2.624-2.536-6.161-1.661-8.896  C71.94,51.428,77.07,45.657,77.096,38.277z"/><path d="M81.846,60.72c-1.735,6.183-4.729,11.052-9.172,14.953c-1.692,1.484-2.541,1.484-4.375,0.708  c-3.073-1.303-4.724-3.475-5.5-6c0.984-2.927,2.865-5.339,4.817-7.375c2.276,0.807,5.251,0.635,8.063,0.129  C78.159,62.693,79.731,62.136,81.846,60.72z"/><path d="M61.711,71.037c0.937,3.308,2.219,5.011,5.697,7.016c-5.583,2.151-11.135,3.505-17.339,2  c-0.463-1.219-0.552-2.26-0.265-3.24c0.307-1.041,1.093-2.115,2.511-3.229C55.378,71.834,58.07,71.256,61.711,71.037z"/></svg>