<svg xmlns="http://www.w3.org/2000/svg" xmlns:xlink="http://www.w3.org/1999/xlink" version="1.1" x="0px" y="0px" enable-background="new 0 0 90 90" xml:space="preserve" viewBox="0 0 90 90"><path d="M45.348,11.316c-9.142-0.134-17.947,3.438-24.412,9.902C7.726,34.428,7.725,55.844,20.934,69.053  c0.001,0.001,0.001,0.001,0.002,0.002c13.208,13.21,34.625,13.21,47.834,0.002c0.001-0.001,0.001-0.001,0.002-0.002  c13.209-13.209,13.21-34.625,0.001-47.834c0-0.001-0.001-0.001-0.001-0.002C62.549,14.997,54.146,11.444,45.348,11.316z   M36.889,36.008h15.93c0.646,0,1.164,0.519,1.164,1.164v15.93c0,0.646-0.519,1.164-1.164,1.164h-15.93  c-0.646,0-1.164-0.519-1.164-1.164v-15.93C35.725,36.526,36.243,36.008,36.889,36.008z"/></svg>