<svg xmlns="http://www.w3.org/2000/svg" xmlns:xlink="http://www.w3.org/1999/xlink" version="1.1" x="0px" y="0px" enable-background="new 0 0 90 90" xml:space="preserve" viewBox="0 0 90 90"><path d="M44.765,48.375c4.707,0,8.531,3.818,8.531,8.531c0,2.266-0.896,4.438-2.5,6.038c-1.6,1.598-3.771,2.5-6.031,2.5  c-2.266,0-4.438-0.902-6.037-2.5c-1.6-1.6-2.5-3.772-2.5-6.038c0-2.26,0.9-4.432,2.5-6.031  C40.327,49.271,42.499,48.375,44.765,48.375z M35.315,30.053c-0.682,0-1.229,0.557-1.229,1.25v6.765  c-0.053,1.636-0.432,2.532-2.594,3.391l-11.531,6.095c-2.006,0.801-4.266,2.837-4.838,5.932l-3.402,18.296  c-0.016,2.067-0.004,3.329,2.512,3.329h61.051c2.521,0,2.527-1.262,2.512-3.329l-3.396-18.296c-0.572-3.094-2.834-5.13-4.838-5.932  L58.03,41.458c-2.168-0.858-2.543-1.754-2.594-3.391v-6.765c0-0.692-0.553-1.25-1.234-1.25h-5.428c-0.584,0-1.068,0.411-1.197,0.957  v1.35c0,0.693-0.547,1.25-1.23,1.25h-3.172c-0.682,0-1.234-0.557-1.234-1.25v-1.35c-0.129-0.546-0.609-0.957-1.191-0.957H35.315z"/><path d="M84.696,34.834c0.01-0.83-0.047-1.658-0.162-2.464C82.452,18.26,59.046,14.89,44.952,14.89S7.452,18.26,5.368,32.37  C4.415,38.823,7.64,46.651,14.19,44.895l9.406-4.271c5.725-2.213,6.734-3.667,6.734-9.041c0-2.916,3.043-5.64,5.984-5.636h17.271  c2.943,0,5.979,2.72,5.979,5.636c0,5.374,1.012,6.828,6.734,9.041l9.406,4.271C81.44,46.432,84.624,40.63,84.696,34.834z"/></svg>